<svg class="icon" id="home" width="51" height="51" viewBox="0 0 51 51" fill="none" xmlns="http://www.w3.org/2000/svg">
<path d="M45.922 20.8006C45.922 20.4003 45.8432 20.0038 45.6899 19.6339C45.5367 19.264 45.3122 18.9279 45.0291 18.6448C44.746 18.3617 44.4099 18.1372 44.04 17.984C43.6701 17.8307 43.2736 17.7519 42.8733 17.7519C42.4729 17.7519 42.0765 17.8307 41.7066 17.984C41.3367 18.1372 41.0006 18.3617 40.7175 18.6448C40.4344 18.9279 40.2098 19.264 40.0566 19.6339C39.9034 20.0038 39.8245 20.4003 39.8245 20.8006H45.922ZM11.7761 20.8006C11.7761 19.9921 11.4549 19.2166 10.8831 18.6448C10.3114 18.0731 9.53589 17.7519 8.72731 17.7519C7.91873 17.7519 7.14327 18.0731 6.57152 18.6448C5.99977 19.2166 5.67857 19.9921 5.67857 20.8006H11.7761ZM45.5952 27.8347C46.167 28.4065 46.9426 28.7278 47.7513 28.7278C48.5599 28.7278 49.3355 28.4065 49.9073 27.8347C50.4792 27.2629 50.8004 26.4873 50.8004 25.6786C50.8004 24.8699 50.4792 24.0944 49.9073 23.5226L45.5952 27.8347ZM25.8003 3.72766L27.9564 1.57159C27.6733 1.2884 27.3371 1.06376 26.9672 0.910493C26.5972 0.757229 26.2007 0.678345 25.8003 0.678345C25.3999 0.678345 25.0033 0.757229 24.6334 0.910493C24.2635 1.06376 23.9273 1.2884 23.6442 1.57159L25.8003 3.72766ZM1.69325 23.5226C1.12142 24.0944 0.800171 24.8699 0.800171 25.6786C0.800171 26.4873 1.12142 27.2629 1.69325 27.8347C2.26507 28.4065 3.04063 28.7278 3.84932 28.7278C4.658 28.7278 5.43357 28.4065 6.00539 27.8347L1.69325 23.5226ZM13.6053 50.6783H37.9953V44.5809H13.6053V50.6783ZM45.922 42.7516V20.8006H39.8245V42.7516H45.922ZM11.7761 42.7516V20.8006H5.67857V42.7516H11.7761ZM49.9073 23.5226L27.9564 1.57159L23.6442 5.88373L45.5952 27.8347L49.9073 23.5226ZM23.6442 1.57159L1.69325 23.5226L6.00539 27.8347L27.9564 5.88373L23.6442 1.57159ZM37.9953 50.6783C40.0976 50.6783 42.1138 49.8432 43.6003 48.3567C45.0869 46.8701 45.922 44.8539 45.922 42.7516H39.8245C39.8245 43.2368 39.6318 43.702 39.2887 44.0451C38.9457 44.3881 38.4804 44.5809 37.9953 44.5809V50.6783ZM13.6053 44.5809C13.1202 44.5809 12.6549 44.3881 12.3118 44.0451C11.9688 43.702 11.7761 43.2368 11.7761 42.7516H5.67857C5.67857 44.8539 6.5137 46.8701 8.00025 48.3567C9.48681 49.8432 11.503 50.6783 13.6053 50.6783V44.5809Z" fill="white"/>
</svg>
