<svg xmlns="http://www.w3.org/2000/svg" class="logo" id="svg1" width="2047.55" height="498.476" viewBox="0 0 2047.55 498.476"><g id="g1" transform="translate(-629.032 -108.132)"><path id="path44" d="M1756.404 312.692c-13.15-4.112-21.258-14.64-21.302-27.66-.042-12.69 4.531-20.089 15.884-25.695 7.068-3.49 8.054-3.705 17.048-3.705 8.98 0 9.885.196 15.255 3.3 11.46 6.624 17.603 17.045 16.477 27.954-1.19 11.526-8.632 21.211-19.394 25.238-6.254 2.34-17.453 2.606-23.968.568" style="fill:currentColor"/><path id="path43" d="M984.08 243.787V108.132h41.965c38.947 0 42.031.126 42.891 1.75.551 1.041.87 36.88.785 88.47l-.14 86.722-6.068 6.279c-3.337 3.453-10.761 11.679-16.498 18.279s-10.68 12.225-10.986 12.5-9.531 10.64-20.502 23.034a78616 78616 0 0 1-23.465 26.5c-1.935 2.181-4.522 4.823-5.75 5.871l-2.232 1.905z" style="fill:currentColor"/><path id="path42" d="m742.325 350.882.255-88.25h84l.262 39.85.261 39.85-3.73 5.15c-2.052 2.833-6.269 7.85-9.371 11.15s-14.315 15.9-24.917 28c-38.848 44.337-46.085 52.5-46.546 52.5-.258 0-.355-39.713-.214-88.25" style="fill:currentColor"/><path id="path41" d="M923.345 437.92c-2.743-2.358-7.247-6.988-10.01-10.288s-6.921-7.8-9.241-10-8.844-9.175-14.498-15.5c-5.653-6.325-13.485-14.807-17.403-18.848s-7.358-8.316-7.643-9.5-.396-42.202-.245-91.152l.275-89h83v228.22l-7.527 8.787c-10.754 12.551-10.637 12.5-16.708 7.281" style="fill:currentColor"/><path id="path40" d="m2160.333 523.378-81.25-.256-.15-118.494c-.083-65.172-.196-119.057-.25-119.744-.078-.956 4.482-1.283 19.4-1.392 10.724-.079 20.287.064 21.25.317 1.651.434 1.75 6.108 1.75 101.392v100.933h122v2.366c0 1.301.112 9.701.25 18.666.158 10.326-.117 16.331-.75 16.384-.55.046-37.563-.031-82.25-.172" style="fill:currentColor"/><path id="path39" d="M1841.083 431.634v-92l25.25.167 25.25.168.284 10.582c.156 5.82.606 10.569 1 10.551.394-.017 2.292-1.634 4.217-3.593 3.91-3.978 13.827-11.274 18.662-13.73 1.74-.883 7.59-2.791 13-4.24 8.638-2.311 11.728-2.63 25.338-2.62 13.824.012 16.472.3 24.5 2.668 18.294 5.395 30.172 14.63 38.813 30.178 4.475 8.052 5.943 12.222 8.818 25.055 2.1 9.376 2.216 12.47 2.603 69.314l.404 59.5-26.148-.162c-14.381-.09-26.336-.35-26.565-.58s-.558-24.681-.73-54.338c-.306-53.191-.342-54.015-2.616-60.92-3.003-9.12-5.25-13.4-8.738-16.64-9.42-8.752-27.436-11.185-43.091-5.819-12.039 4.127-23.024 17.828-25.265 31.51-.54 3.3-.976 28.458-.98 56.487l-.01 50.538-26.999-.038-26.998-.038z" style="fill:currentColor"/><path id="path38" d="m1765.082 523.367-24.5-.267.198-83.733c.108-46.053.22-87.381.25-91.84l.053-8.106 26.496.106 26.495.107V524.01l-2.25-.188c-1.237-.104-13.275-.308-26.75-.455z" style="fill:currentColor"/><path id="path37" d="M1357.084 431.384v-92.25h49.715l.643 6.147c.353 3.38.655 8.893.67 12.25l.03 6.103 4.857-5.17c5.672-6.037 12.74-11.603 18.396-14.489 5.576-2.844 21.496-6.516 31.94-7.366l8.75-.712v47.987c0 .412-5.065.79-11.25.841-12.628.102-18.448 1.237-26.63 5.193-10.449 5.052-17.576 14.136-21.78 27.759-1.68 5.445-1.838 10.252-1.838 55.976v50.019l-26.748-.02-26.748-.018z" style="fill:currentColor"/><path id="path36" d="M2559.713 524.559c-15.475-2.934-30.693-10.687-40.782-20.777-4.247-4.246-4.995-4.467-4.731-1.398.106 1.237.123 6.412.038 11.5l-.156 9.25h-38.914l-.063-127-.063-127h40.04v45.941c0 26.883.382 46.177.92 46.51.506.312 1.744-.455 2.75-1.706 2.963-3.681 11.411-10.297 17.33-13.571 3.025-1.674 10.225-4.297 16-5.83 19.615-5.205 45.091-3.347 60.5 4.413 9.78 4.924 21.27 13.255 27.735 20.109 8.909 9.444 16.721 24.107 20.318 38.134 2.438 9.51 2.704 12.34 2.82 30 .115 17.63-.094 20.266-2.183 27.482-2.856 9.866-8.627 22.326-14.013 30.258-4.298 6.329-17.342 17.495-27.78 23.78-14.446 8.7-42.023 13.27-59.766 9.905m20.031-35.918c20.031-3.817 34.791-17.753 40.016-37.782 2.597-9.953 2.354-30.222-.48-40.1-2.869-9.995-5.665-14.715-12.904-21.777-11.645-11.36-21.93-15.848-36.32-15.848-16.468 0-26.476 3.869-37.24 14.396-11.482 11.23-16.994 25.576-16.944 44.104.062 23.233 7.54 38.699 23.71 49.043 13.827 8.845 24.466 10.954 40.162 7.964" style="fill:currentColor"/><path id="path35" d="M2325.084 525.557c-1.376-.236-5.796-.916-9.824-1.51-20.475-3.024-39.227-14.29-46.052-27.669-3.486-6.833-6.125-18.148-6.125-26.264 0-14.485 4.536-25.825 14.312-35.784 7.419-7.557 13.41-11.13 24.466-14.59 11.842-3.707 22.078-4.589 53.365-4.598 22.554-.007 27.74-.262 28.172-1.386.29-.758.113-4.691-.396-8.741-1.297-10.333-4.903-16.991-12.673-23.405-8.932-7.373-14.859-8.989-32.746-8.93-19.455.064-28.4 2.64-44.929 12.942-3.981 2.482-7.498 4.512-7.814 4.512-.317 0-2.425-3.263-4.686-7.25-2.26-3.988-5.67-9.95-7.578-13.25s-3.474-6.701-3.48-7.558c-.014-1.733 16.843-12.02 26.487-16.165 10.681-4.59 33.988-8.777 48.858-8.777 17.106 0 36.761 4.482 47.142 10.75 14.947 9.026 23.166 19.48 28.666 36.458l3.334 10.292v128.675l-17.959-.13c-9.877-.07-18.089-.26-18.249-.42s-.48-4.528-.712-9.707c-.233-5.18-.458-9.475-.501-9.545s-3.058 2.723-6.7 6.207c-7.328 7.01-16.322 11.459-28.241 13.97-7.14 1.504-22.06 2.573-26.138 1.873m28.334-32.376c12.806-3.662 22.04-10.986 27.237-21.601 2.544-5.196 2.957-7.29 3.277-16.602l.366-10.656-6.357-.467c-3.497-.257-16.033-.377-27.858-.265-19.01.178-22.264.453-28.103 2.368-7.974 2.615-15.197 8.542-17 13.95-1.48 4.437-1.516 14.662-.065 18.365 1.447 3.694 6.879 9.654 10.567 11.597 10.042 5.29 26.114 6.692 37.936 3.311" style="fill:currentColor"/><path id="path34" d="M1185.582 525.122c-19.842-4.061-31.055-10.046-40.897-21.824-12.419-14.863-14.232-37.838-4.551-57.654 6.859-14.038 18.31-22.247 37.754-27.062 14.686-3.636 25.827-4.64 53.27-4.8l25.424-.149-.142-3.204c-.33-7.421-3.581-14.515-9.138-19.94-6.606-6.45-11.26-8.747-22.132-10.921-8.05-1.61-21.375-1.513-29.083.21-8.979 2.007-17.713 5.094-25.657 9.067-5.033 2.517-9.785 4.334-10.558 4.037-2.056-.788-15.223-23.348-17.256-29.564-2.086-6.38-2.608-5.785 11.466-13.066 17.74-9.179 37.207-13.276 64-13.473 28.388-.208 44.715 3.523 60.255 13.77 14.457 9.534 22.298 20.057 27.234 36.546 4.686 15.655 5.011 20.888 5.011 80.538v56l-22.5-.202c-12.375-.111-23.491-.224-24.703-.25-2.027-.044-2.162-.426-1.697-4.798.278-2.613.105-7.45-.384-10.75-.825-5.563-.968-5.81-1.972-3.397-.596 1.432-3.257 4.486-5.913 6.787-15.433 13.364-43.212 19.139-67.83 14.1m42.701-35.113c11.554-2.452 21.285-9.682 26.697-19.835 3.007-5.643 3.163-6.464 2.89-15.252l-.288-9.289-23.5.046c-26.56.053-32.574.933-39.636 5.8-7.696 5.303-10.102 12.856-7.304 22.931 1.212 4.363 5.97 10.17 10.069 12.29 7.874 4.071 20.927 5.461 31.072 3.309" style="fill:currentColor"/><path id="path33" d="M1566.082 592.652c-10.195-1.477-27.132-5.797-41.21-10.511-9.86-3.301-13.106-4.84-20.48-9.701l-5.19-3.423 1.954-4.557c1.075-2.507 2.796-5.744 3.826-7.193 1.03-1.45 4.437-7.36 7.571-13.135 7.846-14.455 7.322-14.084 13.813-9.775 11.715 7.779 26.563 13.637 40.093 15.82 9.858 1.59 35.356.76 42.007-1.368 2.687-.859 7.885-3.557 11.552-5.996 8.89-5.91 14.192-13.917 17.013-25.683 2.007-8.373 2.824-23.998 1.254-23.998-.438 0-2.576 1.84-4.75 4.09-4.77 4.936-18.469 12.052-29.172 15.155-6.754 1.957-9.892 2.238-23.78 2.123-14.097-.117-17.072-.446-25-2.764-29.697-8.684-53.297-29.406-60.9-53.474-4.92-15.575-5.859-40.541-2.106-56.027 5.866-24.203 22.477-45.133 44.202-55.693 12.12-5.892 24.545-8.626 41.649-9.165 15.327-.483 21.493.226 33.063 3.8 7.7 2.379 19.97 10.307 25.27 16.328 2.24 2.545 4.354 4.627 4.697 4.627s.624-5.063.624-11.25v-11.25l24.75.174 24.75.175v86.325c0 100.962-.01 101.084-9.517 120.326-10.594 21.443-23.299 31.948-49.077 40.585-17.288 5.792-47.51 8.248-66.906 5.436m33.026-122.564c16.005-1.973 28.642-10.573 35.407-24.095 8.142-16.273 6.797-30.301-4.64-48.4-6.373-10.088-23.41-17.461-40.341-17.461-28.174 0-47.598 20.143-46.267 47.98.562 11.762 4.257 19.595 13.966 29.608 8.034 8.285 13.54 11.027 24.85 12.375 3.574.426 6.961.833 7.525.906.565.072 4.84-.339 9.5-.913" style="fill:currentColor"/><path id="path32" d="M2676.303 603.364c-86.376.56-1013.221.224-1013.221-.321v-.001c0-.324 1.176-1.125 2.613-1.78 4.201-1.914 15.171-10.048 20.27-15.03 6.2-6.06 12.287-14.412 16.81-23.072l3.671-7.028 485.068.01 485.068.01z" style="fill:currentColor"/><path id="path31" d="M647.3 582.882c10.048-11.688 20.694-23.95 23.657-27.25 11.8-13.142 16.371-18.353 23.248-26.5 3.946-4.675 10.865-12.55 15.375-17.5s11.745-13.275 16.078-18.5l9.901-11.936c3.08-3.707 15.02-17.236 37.058-41.988 10.98-12.333 23.522-26.508 27.87-31.5a2111 2111 0 0 1 15.058-17.076c3.935-4.4 8.87-10.138 10.966-12.75s4.41-4.75 5.14-4.75c.732 0 2.59 1.68 4.13 3.735s5.726 6.675 9.301 10.27 9.173 9.452 12.44 13.016c3.268 3.563 11.143 11.899 17.5 18.523 6.358 6.624 14.71 15.611 18.56 19.97 11.06 12.524 33.704 36.486 34.48 36.486.852 0 8.506-8.114 24.52-25.993 6.6-7.369 15.375-17.033 19.5-21.475 7.53-8.108 18.782-20.85 34.027-38.532 4.505-5.225 10.786-12.425 13.957-16 3.17-3.575 7.05-8.075 8.62-10 1.571-1.925 3.54-4.175 4.376-5 2.896-2.858 20.733-22.539 28.11-31.016 4.076-4.684 8.815-10.084 10.533-12s7.342-8.252 12.5-14.079c12.869-14.54 39.885-44.625 48.377-53.873 3.85-4.193 10.375-11.635 14.5-16.538s9.863-11.448 12.75-14.545 5.25-6.055 5.25-6.574c0-.99-24.779-23.247-32.833-29.493-5.414-4.199-8.709-7.673-7.973-8.41.284-.283 5.869-1.876 12.411-3.54 6.542-1.663 16.62-4.545 22.395-6.404 12.46-4.01 33.132-10.076 52.5-15.403 7.7-2.118 19.85-5.68 27-7.916 19.653-6.146 40.375-12.279 46.25-13.688l5.25-1.258-.024 3.118c-.014 1.716-.493 5.144-1.066 7.619-.572 2.475-2.162 11.025-3.533 19s-3.343 18.55-4.38 23.5a713 713 0 0 0-3.486 18c-.878 4.95-3.783 20.475-6.456 34.5-2.672 14.025-6.3 33.6-8.06 43.5s-3.502 18.324-3.869 18.72c-.678.734-19.552-14.51-28.625-23.121-2.75-2.61-7.37-6.673-10.267-9.03l-5.267-4.284-3.582 3.858c-1.97 2.121-4.752 5.432-6.183 7.357s-6 7.152-10.152 11.615-8.224 8.94-9.05 9.95c-.824 1.01-3.974 4.598-7 7.973-3.024 3.375-9.774 11.017-15 16.983-9.307 10.626-12.197 13.864-28.588 32.02-7.75 8.584-19.679 21.865-44.271 49.29-6.249 6.968-16.386 18.069-22.528 24.669-14.262 15.324-33.813 37.033-39.613 43.984-2.475 2.966-7.288 8.458-10.696 12.205a2021 2021 0 0 0-14.608 16.311c-4.626 5.225-16.688 18.621-26.804 29.77-10.115 11.148-22.344 24.873-27.175 30.5s-11.579 13.053-14.995 16.503l-6.21 6.274-8.372-8.774-23.505-24.674q-13.831-14.525-27.718-29c-6.921-7.204-15.302-16.474-18.623-20.599s-8.511-9.831-11.533-12.68c-3.021-2.85-5.764-5.887-6.096-6.75-.33-.864-1.121-1.57-1.756-1.57-.829 0-.852.363-.082 1.29.808.975.22 1.97-2.403 4.063-1.91 1.525-4.475 4.276-5.699 6.114s-8.11 9.797-15.305 17.687c-7.194 7.89-16.53 18.396-20.747 23.346-11.838 13.897-18.503 21.542-23.55 27.01-2.542 2.756-5.748 6.668-7.123 8.694s-10.6 13.14-20.5 24.698l-18 21.014-44.275.042-44.275.042z" style="fill:currentColor"/><path id="path30" d="M1192.58 606.445c-13.653-.724-50.295.567-75.158-2.639-19.557-2.521-40.075-4.171-57.713-12.987-15.758-7.876-29.06-20.65-40.227-34.275-8.369-10.21-19.27-34.603-19.27-34.603l69.372-77.128c2.58 21.097 8.908 39.736 18.181 57.61 7.242 13.956 15.52 28.787 28.604 37.508 15.98 10.651 44.3 14.25 55.729 14.62 70.945 2.287 15.832 1.573 165.849 1.577l137.367.004-.62 2.25c-.342 1.238-.91 5.505-1.263 9.484-.597 6.728-.426 7.671 2.448 13.5 1.7 3.446 4.802 7.92 6.895 9.94 3.705 3.577 19.33 13.178 22.984 14.123 1.002.26-61.628.563-139.178.674s-147.075.306-154.5.432c-7.425.125-16.2.085-19.5-.09" style="fill:currentColor"/></g></svg>