<svg xmlns="http://www.w3.org/2000/svg" id="svg1" width="459.959" height="476.5" viewBox="0 0 459.959 476.5"><g id="g1" transform="translate(-1370.123 -735.632)"><path id="path29" d="m1609.136 908.882-.054-83.75h47.058l-.091 53.402-.091 53.401-9.188 11.517c-13.49 16.907-14.383 18.07-23.965 31.176-4.827 6.602-9.865 13.354-11.196 15.004l-2.42 3z" style="fill:currentColor"/><path id="path28" d="M1569.439 1008.947c-6.521-7.244-15.385-16.803-19.697-21.243s-8.883-9.422-10.158-11.072l-2.318-3-.342-46.5-.342-46.5 23.25-.268 23.25-.269v70.46c0 40.26-.382 70.695-.893 71.01-.49.304-6.228-5.374-12.75-12.618" style="fill:currentColor"/><path id="path27" d="m1470.196 980.165-.264-60.033h47.15v58.942l-21.61 28.78c-11.886 15.828-22.376 29.58-23.311 30.561-1.602 1.68-1.716-1.705-1.965-58.25" style="fill:currentColor"/><path id="path26" d="M1432.082 1115.739c0-1.03 5.567-8.872 19.657-27.694 7.17-9.577 17.383-23.488 22.695-30.913s14.65-20.025 20.75-28c11.375-14.872 28.223-38.197 31.595-43.742l1.893-3.112 7.334 8.177c7.92 8.83 23.736 25.944 36.625 39.63 4.427 4.7 8.814 9.66 9.75 11.02l1.701 2.472 1.583-2.26c.87-1.243 8.532-11.13 17.024-21.973 18.976-24.223 31.931-41.132 46.518-60.712 6.147-8.25 17.102-22.425 24.346-31.5 16.656-20.867 32.53-41.89 32.53-43.083 0-.504-4.76-4.843-10.575-9.642l-10.575-8.726 2.825-1.257c1.553-.692 11.824-4.651 22.824-8.799s22.25-8.643 25-9.99c2.75-1.348 11.413-4.883 19.25-7.856l14.25-5.407v3.947c0 4.322-3.805 40.395-4.516 42.813-.243.825-1.37 9.774-2.506 19.886s-2.383 19.894-2.772 21.738l-.706 3.351-7.5-5.973c-13.357-10.638-15.346-12.053-16.431-11.692-.588.195-4.586 5.043-8.885 10.773-6.81 9.077-13.83 18.243-30.184 39.42-2.2 2.849-8.56 11.007-14.133 18.13s-14.359 18.556-19.524 25.408a5592 5592 0 0 1-19.333 25.459c-5.468 7.15-12.673 16.6-16.01 21-3.339 4.4-8.754 11.426-12.035 15.613-3.28 4.188-10.91 14.04-16.954 21.894l-10.989 14.28-7.865-8.393c-4.326-4.617-10.587-11.544-13.914-15.394-9.556-11.06-32.128-35.5-32.785-35.5-.329 0-1.24 1.296-2.027 2.881s-5.296 7.997-10.02 14.25c-11.547 15.284-31.46 42.688-37.505 51.614l-4.906 7.245-15.5.033c-8.525.018-18.762.304-22.75.636-3.987.331-7.25.308-7.25-.052" style="fill:currentColor"/><path id="path25" d="M1370.359 1209.411c-.258-.672-.313-107.547-.122-237.5l.347-236.279h458.998l.257 211.25c.222 182.437.062 211.25-1.17 211.25-2.223 0-17.67-5.644-26.086-9.532l-7.6-3.51.574-184.23c.317-101.325.227-185.697-.2-187.493l-.775-3.265-194.39-.012c-106.914-.007-194.533.132-194.71.308-.24.24-.663 385.216-.441 402.484l.042 3.25h298.19s8.66 5.32 13.155 7.683c15.677 8.24 32.134 14.905 48.09 22.592 2.865 1.38 8.555 4.225 8.555 4.225H1571.95c-157.464 0-201.224-.265-201.591-1.221" style="fill:currentColor"/><path id="path1" d="M1823.081 1211.476c-28.173-4.324-34.797-10.151-51.533-17.018-27.001-11.079-53.595-23.578-78.465-38.852-11.505-7.065-22.673-14.93-32.447-24.245-7.926-7.555-14.976-16.134-20.904-25.34-7.556-11.735-18.379-37.622-18.379-37.622l37.991-48.326s.268 18.643 2.544 27.596c3.326 13.078 8.188 26.18 15.991 37.19 7.723 10.896 18.793 19.127 29.49 27.123 22.61 16.902 47.186 31.323 72.627 43.555 15.653 7.526 19.756 9.669 48.836 18.166.943.277 1.25 5.034 1.25 19.398v19.031l-2.25-.136a63 63 0 0 1-4.75-.52" style="fill:currentColor"/></g></svg>