<?xml version="1.0" encoding="UTF-8" standalone="no"?>
<svg
   id="svg1"
   width="2191.051"
   height="1104"
   viewBox="0 0 2191.051 1104"
   version="1.1"
   sodipodi:docname="logoComplete.svg"
   inkscape:version="1.4.2 (ebf0e940d0, 2025-05-08)"
   xmlns:inkscape="http://www.inkscape.org/namespaces/inkscape"
   xmlns:sodipodi="http://sodipodi.sourceforge.net/DTD/sodipodi-0.dtd"
   xmlns="http://www.w3.org/2000/svg"
   xmlns:svg="http://www.w3.org/2000/svg">
  <defs
     id="defs1" />
  <sodipodi:namedview
     id="namedview1"
     pagecolor="#ffffff"
     bordercolor="#999999"
     borderopacity="1"
     inkscape:showpageshadow="2"
     inkscape:pageopacity="0"
     inkscape:pagecheckerboard="0"
     inkscape:deskcolor="#d1d1d1"
     inkscape:zoom="0.51816068"
     inkscape:cx="1215.8391"
     inkscape:cy="456.42213"
     inkscape:window-width="1920"
     inkscape:window-height="1020"
     inkscape:window-x="0"
     inkscape:window-y="1110"
     inkscape:window-maximized="1"
     inkscape:current-layer="g1" />
  <g
     id="g1"
     transform="translate(-505.03 -108.132)">
    <path
       style="fill:#000"
       d="m 1756.404,312.692 c -13.15,-4.112 -21.258,-14.64 -21.302,-27.66 -0.042,-12.69 4.531,-20.089 15.884,-25.695 7.068,-3.49 8.054,-3.705 17.048,-3.705 8.98,0 9.885,0.196 15.255,3.3 11.46,6.624 17.603,17.045 16.477,27.954 -1.19,11.526 -8.632,21.211 -19.394,25.238 -6.254,2.34 -17.453,2.606 -23.968,0.568"
       id="path44"
       inkscape:export-filename="logo.svg"
       inkscape:export-xdpi="96"
       inkscape:export-ydpi="96" />
    <path
       style="fill:#000000"
       d="M 984.08,243.787 V 108.132 h 41.965 c 38.947,0 42.031,0.126 42.891,1.75 0.551,1.041 0.87,36.88 0.785,88.47 l -0.14,86.722 -6.068,6.279 c -3.337,3.453 -10.761,11.679 -16.498,18.279 -5.737,6.6 -10.68,12.225 -10.986,12.5 -0.306,0.275 -9.531,10.64 -20.502,23.034 a 78616,78616 0 0 1 -23.465,26.5 c -1.935,2.181 -4.522,4.823 -5.75,5.871 l -2.232,1.905 z"
       id="path43" />
    <path
       style="fill:#000000"
       d="m 742.325,350.882 0.255,-88.25 h 84 l 0.262,39.85 0.261,39.85 -3.73,5.15 c -2.052,2.833 -6.269,7.85 -9.371,11.15 -3.102,3.3 -14.315,15.9 -24.917,28 -38.848,44.337 -46.085,52.5 -46.546,52.5 -0.258,0 -0.355,-39.713 -0.214,-88.25"
       id="path42" />
    <path
       style="fill:#000000"
       d="m 923.345,437.92 c -2.743,-2.358 -7.247,-6.988 -10.01,-10.288 -2.763,-3.3 -6.921,-7.8 -9.241,-10 -2.32,-2.2 -8.844,-9.175 -14.498,-15.5 -5.653,-6.325 -13.485,-14.807 -17.403,-18.848 -3.918,-4.041 -7.358,-8.316 -7.643,-9.5 -0.285,-1.184 -0.396,-42.202 -0.245,-91.152 l 0.275,-89 h 83 v 228.22 l -7.527,8.787 c -10.754,12.551 -10.637,12.5 -16.708,7.281"
       id="path41" />
    <path
       style="fill:#000"
       d="m 2160.333,523.378 -81.25,-0.256 -0.15,-118.494 c -0.083,-65.172 -0.196,-119.057 -0.25,-119.744 -0.078,-0.956 4.482,-1.283 19.4,-1.392 10.724,-0.079 20.287,0.064 21.25,0.317 1.651,0.434 1.75,6.108 1.75,101.392 v 100.933 h 122 v 2.366 c 0,1.301 0.112,9.701 0.25,18.666 0.158,10.326 -0.117,16.331 -0.75,16.384 -0.55,0.046 -37.563,-0.031 -82.25,-0.172"
       id="path40" />
    <path
       style="fill:#000"
       d="m 1841.083,431.634 v -92 l 25.25,0.167 25.25,0.168 0.284,10.582 c 0.156,5.82 0.606,10.569 1,10.551 0.394,-0.017 2.292,-1.634 4.217,-3.593 3.91,-3.978 13.827,-11.274 18.662,-13.73 1.74,-0.883 7.59,-2.791 13,-4.24 8.638,-2.311 11.728,-2.63 25.338,-2.62 13.824,0.012 16.472,0.3 24.5,2.668 18.294,5.395 30.172,14.63 38.813,30.178 4.475,8.052 5.943,12.222 8.818,25.055 2.1,9.376 2.216,12.47 2.603,69.314 l 0.404,59.5 -26.148,-0.162 c -14.381,-0.09 -26.336,-0.35 -26.565,-0.58 -0.229,-0.23 -0.558,-24.681 -0.73,-54.338 -0.306,-53.191 -0.342,-54.015 -2.616,-60.92 -3.003,-9.12 -5.25,-13.4 -8.738,-16.64 -9.42,-8.752 -27.436,-11.185 -43.091,-5.819 -12.039,4.127 -23.024,17.828 -25.265,31.51 -0.54,3.3 -0.976,28.458 -0.98,56.487 l -0.01,50.538 -26.999,-0.038 -26.998,-0.038 z"
       id="path39" />
    <path
       style="fill:#000"
       d="m 1765.082,523.367 -24.5,-0.267 0.198,-83.733 c 0.108,-46.053 0.22,-87.381 0.25,-91.84 l 0.053,-8.106 26.496,0.106 26.495,0.107 V 524.01 l -2.25,-0.188 c -1.237,-0.104 -13.275,-0.308 -26.75,-0.455 z"
       id="path38" />
    <path
       style="fill:#000"
       d="m 1357.084,431.384 v -92.25 h 49.715 l 0.643,6.147 c 0.353,3.38 0.655,8.893 0.67,12.25 l 0.03,6.103 4.857,-5.17 c 5.672,-6.037 12.74,-11.603 18.396,-14.489 5.576,-2.844 21.496,-6.516 31.94,-7.366 l 8.75,-0.712 v 47.987 c 0,0.412 -5.065,0.79 -11.25,0.841 -12.628,0.102 -18.448,1.237 -26.63,5.193 -10.449,5.052 -17.576,14.136 -21.78,27.759 -1.68,5.445 -1.838,10.252 -1.838,55.976 v 50.019 l -26.748,-0.02 -26.748,-0.018 z"
       id="path37" />
    <path
       style="fill:#000"
       d="m 2559.713,524.559 c -15.475,-2.934 -30.693,-10.687 -40.782,-20.777 -4.247,-4.246 -4.995,-4.467 -4.731,-1.398 0.106,1.237 0.123,6.412 0.038,11.5 l -0.156,9.25 h -38.914 l -0.063,-127 -0.063,-127 h 40.04 v 45.941 c 0,26.883 0.382,46.177 0.92,46.51 0.506,0.312 1.744,-0.455 2.75,-1.706 2.963,-3.681 11.411,-10.297 17.33,-13.571 3.025,-1.674 10.225,-4.297 16,-5.83 19.615,-5.205 45.091,-3.347 60.5,4.413 9.78,4.924 21.27,13.255 27.735,20.109 8.909,9.444 16.721,24.107 20.318,38.134 2.438,9.51 2.704,12.34 2.82,30 0.115,17.63 -0.094,20.266 -2.183,27.482 -2.856,9.866 -8.627,22.326 -14.013,30.258 -4.298,6.329 -17.342,17.495 -27.78,23.78 -14.446,8.7 -42.023,13.27 -59.766,9.905 m 20.031,-35.918 c 20.031,-3.817 34.791,-17.753 40.016,-37.782 2.597,-9.953 2.354,-30.222 -0.48,-40.1 -2.869,-9.995 -5.665,-14.715 -12.904,-21.777 -11.645,-11.36 -21.93,-15.848 -36.32,-15.848 -16.468,0 -26.476,3.869 -37.24,14.396 -11.482,11.23 -16.994,25.576 -16.944,44.104 0.062,23.233 7.54,38.699 23.71,49.043 13.827,8.845 24.466,10.954 40.162,7.964"
       id="path36"
       inkscape:export-filename="logo.svg"
       inkscape:export-xdpi="96"
       inkscape:export-ydpi="96" />
    <path
       style="fill:#000"
       d="m 2325.084,525.557 c -1.376,-0.236 -5.796,-0.916 -9.824,-1.51 -20.475,-3.024 -39.227,-14.29 -46.052,-27.669 -3.486,-6.833 -6.125,-18.148 -6.125,-26.264 0,-14.485 4.536,-25.825 14.312,-35.784 7.419,-7.557 13.41,-11.13 24.466,-14.59 11.842,-3.707 22.078,-4.589 53.365,-4.598 22.554,-0.007 27.74,-0.262 28.172,-1.386 0.29,-0.758 0.113,-4.691 -0.396,-8.741 -1.297,-10.333 -4.903,-16.991 -12.673,-23.405 -8.932,-7.373 -14.859,-8.989 -32.746,-8.93 -19.455,0.064 -28.4,2.64 -44.929,12.942 -3.981,2.482 -7.498,4.512 -7.814,4.512 -0.317,0 -2.425,-3.263 -4.686,-7.25 -2.26,-3.988 -5.67,-9.95 -7.578,-13.25 -1.908,-3.3 -3.474,-6.701 -3.48,-7.558 -0.014,-1.733 16.843,-12.02 26.487,-16.165 10.681,-4.59 33.988,-8.777 48.858,-8.777 17.106,0 36.761,4.482 47.142,10.75 14.947,9.026 23.166,19.48 28.666,36.458 l 3.334,10.292 v 128.675 l -17.959,-0.13 c -9.877,-0.07 -18.089,-0.26 -18.249,-0.42 -0.16,-0.16 -0.48,-4.528 -0.712,-9.707 -0.233,-5.18 -0.458,-9.475 -0.501,-9.545 -0.043,-0.07 -3.058,2.723 -6.7,6.207 -7.328,7.01 -16.322,11.459 -28.241,13.97 -7.14,1.504 -22.06,2.573 -26.138,1.873 m 28.334,-32.376 c 12.806,-3.662 22.04,-10.986 27.237,-21.601 2.544,-5.196 2.957,-7.29 3.277,-16.602 l 0.366,-10.656 -6.357,-0.467 c -3.497,-0.257 -16.033,-0.377 -27.858,-0.265 -19.01,0.178 -22.264,0.453 -28.103,2.368 -7.974,2.615 -15.197,8.542 -17,13.95 -1.48,4.437 -1.516,14.662 -0.065,18.365 1.447,3.694 6.879,9.654 10.567,11.597 10.042,5.29 26.114,6.692 37.936,3.311"
       id="path35" />
    <path
       style="fill:#000"
       d="m 1185.582,525.122 c -19.842,-4.061 -31.055,-10.046 -40.897,-21.824 -12.419,-14.863 -14.232,-37.838 -4.551,-57.654 6.859,-14.038 18.31,-22.247 37.754,-27.062 14.686,-3.636 25.827,-4.64 53.27,-4.8 l 25.424,-0.149 -0.142,-3.204 c -0.33,-7.421 -3.581,-14.515 -9.138,-19.94 -6.606,-6.45 -11.26,-8.747 -22.132,-10.921 -8.05,-1.61 -21.375,-1.513 -29.083,0.21 -8.979,2.007 -17.713,5.094 -25.657,9.067 -5.033,2.517 -9.785,4.334 -10.558,4.037 -2.056,-0.788 -15.223,-23.348 -17.256,-29.564 -2.086,-6.38 -2.608,-5.785 11.466,-13.066 17.74,-9.179 37.207,-13.276 64,-13.473 28.388,-0.208 44.715,3.523 60.255,13.77 14.457,9.534 22.298,20.057 27.234,36.546 4.686,15.655 5.011,20.888 5.011,80.538 v 56 l -22.5,-0.202 c -12.375,-0.111 -23.491,-0.224 -24.703,-0.25 -2.027,-0.044 -2.162,-0.426 -1.697,-4.798 0.278,-2.613 0.105,-7.45 -0.384,-10.75 -0.825,-5.563 -0.968,-5.81 -1.972,-3.397 -0.596,1.432 -3.257,4.486 -5.913,6.787 -15.433,13.364 -43.212,19.139 -67.83,14.1 m 42.701,-35.113 c 11.554,-2.452 21.285,-9.682 26.697,-19.835 3.007,-5.643 3.163,-6.464 2.89,-15.252 l -0.288,-9.289 -23.5,0.046 c -26.56,0.053 -32.574,0.933 -39.636,5.8 -7.696,5.303 -10.102,12.856 -7.304,22.931 1.212,4.363 5.97,10.17 10.069,12.29 7.874,4.071 20.927,5.461 31.072,3.309"
       id="path34" />
    <path
       style="fill:#000"
       d="m 1566.082,592.652 c -10.195,-1.477 -27.132,-5.797 -41.21,-10.511 -9.86,-3.301 -13.106,-4.84 -20.48,-9.701 l -5.19,-3.423 1.954,-4.557 c 1.075,-2.507 2.796,-5.744 3.826,-7.193 1.03,-1.45 4.437,-7.36 7.571,-13.135 7.846,-14.455 7.322,-14.084 13.813,-9.775 11.715,7.779 26.563,13.637 40.093,15.82 9.858,1.59 35.356,0.76 42.007,-1.368 2.687,-0.859 7.885,-3.557 11.552,-5.996 8.89,-5.91 14.192,-13.917 17.013,-25.683 2.007,-8.373 2.824,-23.998 1.254,-23.998 -0.438,0 -2.576,1.84 -4.75,4.09 -4.77,4.936 -18.469,12.052 -29.172,15.155 -6.754,1.957 -9.892,2.238 -23.78,2.123 -14.097,-0.117 -17.072,-0.446 -25,-2.764 -29.697,-8.684 -53.297,-29.406 -60.9,-53.474 -4.92,-15.575 -5.859,-40.541 -2.106,-56.027 5.866,-24.203 22.477,-45.133 44.202,-55.693 12.12,-5.892 24.545,-8.626 41.649,-9.165 15.327,-0.483 21.493,0.226 33.063,3.8 7.7,2.379 19.97,10.307 25.27,16.328 2.24,2.545 4.354,4.627 4.697,4.627 0.343,0 0.624,-5.063 0.624,-11.25 v -11.25 l 24.75,0.174 24.75,0.175 v 86.325 c 0,100.962 -0.01,101.084 -9.517,120.326 -10.594,21.443 -23.299,31.948 -49.077,40.585 -17.288,5.792 -47.51,8.248 -66.906,5.436 m 33.026,-122.564 c 16.005,-1.973 28.642,-10.573 35.407,-24.095 8.142,-16.273 6.797,-30.301 -4.64,-48.4 -6.373,-10.088 -23.41,-17.461 -40.341,-17.461 -28.174,0 -47.598,20.143 -46.267,47.98 0.562,11.762 4.257,19.595 13.966,29.608 8.034,8.285 13.54,11.027 24.85,12.375 3.574,0.426 6.961,0.833 7.525,0.906 0.565,0.072 4.84,-0.339 9.5,-0.913"
       id="path33" />
    <path
       style="fill:#000000"
       d="m 2676.3027,603.36447 c -86.376,0.56 -1013.2207,0.22353 -1013.2207,-0.32147 v -10e-4 c 0,-0.324 1.176,-1.125 2.613,-1.78 4.201,-1.914 15.171,-10.048 20.27,-15.03 6.2,-6.06 12.287,-14.412 16.81,-23.072 l 3.671,-7.028 485.068,0.01 485.068,0.01 z"
       id="path32"
       sodipodi:nodetypes="cssccccccc" />
    <path
       style="fill:#000000"
       d="m 647.3,582.882 c 10.048,-11.688 20.694,-23.95 23.657,-27.25 11.8,-13.142 16.371,-18.353 23.248,-26.5 3.946,-4.675 10.865,-12.55 15.375,-17.5 4.51,-4.95 11.745,-13.275 16.078,-18.5 l 9.901,-11.936 c 3.08,-3.707 15.02,-17.236 37.058,-41.988 10.98,-12.333 23.522,-26.508 27.87,-31.5 4.9886,-5.71903 10.00801,-11.41111 15.058,-17.076 3.935,-4.4 8.87,-10.138 10.966,-12.75 2.096,-2.612 4.41,-4.75 5.14,-4.75 0.732,0 2.59,1.68 4.13,3.735 1.54,2.055 5.726,6.675 9.301,10.27 3.575,3.595 9.173,9.452 12.44,13.016 3.268,3.563 11.143,11.899 17.5,18.523 6.358,6.624 14.71,15.611 18.56,19.97 11.06,12.524 33.704,36.486 34.48,36.486 0.852,0 8.506,-8.114 24.52,-25.993 6.6,-7.369 15.375,-17.033 19.5,-21.475 7.53,-8.108 18.782,-20.85 34.027,-38.532 4.505,-5.225 10.786,-12.425 13.957,-16 3.17,-3.575 7.05,-8.075 8.62,-10 1.571,-1.925 3.54,-4.175 4.376,-5 2.896,-2.858 20.733,-22.539 28.11,-31.016 4.076,-4.684 8.815,-10.084 10.533,-12 1.718,-1.916 7.342,-8.252 12.5,-14.079 12.869,-14.54 39.885,-44.625 48.377,-53.873 3.85,-4.193 10.375,-11.635 14.5,-16.538 4.125,-4.903 9.863,-11.448 12.75,-14.545 2.887,-3.097 5.25,-6.055 5.25,-6.574 0,-0.99 -24.779,-23.247 -32.833,-29.493 -5.414,-4.199 -8.709,-7.673 -7.973,-8.41 0.284,-0.283 5.869,-1.876 12.411,-3.54 6.542,-1.663 16.62,-4.545 22.395,-6.404 12.46,-4.01 33.132,-10.076 52.5,-15.403 7.7,-2.118 19.85,-5.68 27,-7.916 19.653,-6.146 40.375,-12.279 46.25,-13.688 l 5.25,-1.258 -0.024,3.118 c -0.014,1.716 -0.493,5.144 -1.066,7.619 -0.572,2.475 -2.162,11.025 -3.533,19 -1.371,7.975 -3.343,18.55 -4.38,23.5 -1.2391,5.98481 -2.4012,11.98531 -3.486,18 -0.878,4.95 -3.783,20.475 -6.456,34.5 -2.672,14.025 -6.3,33.6 -8.06,43.5 -1.76,9.9 -3.502,18.324 -3.869,18.72 -0.678,0.734 -19.552,-14.51 -28.625,-23.121 -2.75,-2.61 -7.37,-6.673 -10.267,-9.03 l -5.267,-4.284 -3.582,3.858 c -1.97,2.121 -4.752,5.432 -6.183,7.357 -1.431,1.925 -6,7.152 -10.152,11.615 -4.152,4.463 -8.224,8.94 -9.05,9.95 -0.824,1.01 -3.974,4.598 -7,7.973 -3.024,3.375 -9.774,11.017 -15,16.983 -9.307,10.626 -12.197,13.864 -28.588,32.02 -7.75,8.584 -19.679,21.865 -44.271,49.29 -6.249,6.968 -16.386,18.069 -22.528,24.669 -14.262,15.324 -33.813,37.033 -39.613,43.984 -2.475,2.966 -7.288,8.458 -10.696,12.205 -3.408,3.747 -9.982,11.086 -14.608,16.311 -4.626,5.225 -16.688,18.621 -26.804,29.77 -10.115,11.148 -22.344,24.873 -27.175,30.5 -4.831,5.627 -11.579,13.053 -14.995,16.503 l -6.21,6.274 -8.372,-8.774 -23.505,-24.674 c -9.22103,-9.68414 -18.46038,-19.35083 -27.718,-29 -6.921,-7.204 -15.302,-16.474 -18.623,-20.599 -3.321,-4.125 -8.511,-9.831 -11.533,-12.68 -3.021,-2.85 -5.764,-5.887 -6.096,-6.75 -0.33,-0.864 -1.121,-1.57 -1.756,-1.57 -0.829,0 -0.852,0.363 -0.082,1.29 0.808,0.975 0.22,1.97 -2.403,4.063 -1.91,1.525 -4.475,4.276 -5.699,6.114 -1.224,1.838 -8.11,9.797 -15.305,17.687 -7.194,7.89 -16.53,18.396 -20.747,23.346 -11.838,13.897 -18.503,21.542 -23.55,27.01 -2.542,2.756 -5.748,6.668 -7.123,8.694 -1.375,2.026 -10.6,13.14 -20.5,24.698 l -18,21.014 -44.275,0.042 -44.275,0.042 z"
       id="path31"
       sodipodi:nodetypes="cscscccccsssscccsccsccscsccssscccccsccccscccscscccssccccccssssscccccsccsccscccsccccc" />
    <path
       style="fill:#000000"
       d="m 1192.58,606.445 c -13.653,-0.724 -50.2954,0.56675 -75.1576,-2.63873 -19.5572,-2.5215 -40.0753,-4.17154 -57.7138,-12.98777 -15.7572,-7.87594 -29.0592,-20.65017 -40.2263,-34.27424 -8.3691,-10.21048 -19.2695,-34.60278 -19.2695,-34.60278 l 69.3715,-77.12849 c 2.5793,21.09662 8.9073,39.73556 18.1812,57.60984 7.2412,13.95654 15.5198,28.78729 28.6031,37.50788 15.9803,10.65163 44.3011,14.2511 55.7289,14.61957 70.9454,2.28748 15.8325,1.57372 165.8495,1.57772 l 137.367,0.004 -0.62,2.25 c -0.342,1.238 -0.91,5.505 -1.263,9.484 -0.597,6.728 -0.426,7.671 2.448,13.5 1.7,3.446 4.802,7.92 6.895,9.94 3.705,3.577 19.33,13.178 22.984,14.123 1.002,0.26 -61.628,0.563 -139.178,0.674 -77.55,0.111 -147.075,0.306 -154.5,0.432 -7.425,0.125 -16.2,0.085 -19.5,-0.09"
       id="path30"
       sodipodi:nodetypes="caaaccaascccscccscc" />
    <path
       style="fill:#000000"
       d="m 1609.136,908.882 -0.054,-83.75 h 47.058 l -0.091,53.402 -0.091,53.401 -9.188,11.517 c -13.49,16.907 -14.383,18.07 -23.965,31.176 -4.827,6.602 -9.865,13.354 -11.196,15.004 l -2.42,3 z"
       id="path29"
       sodipodi:nodetypes="ccccccsscc"
       inkscape:export-filename="square.svg"
       inkscape:export-xdpi="96"
       inkscape:export-ydpi="96" />
    <path
       style="fill:#000"
       d="m 1569.439,1008.947 c -6.521,-7.244 -15.385,-16.803 -19.697,-21.243 -4.312,-4.44 -8.883,-9.422 -10.158,-11.072 l -2.318,-3 -0.342,-46.5 -0.342,-46.5 23.25,-0.268 23.25,-0.269 v 70.46 c 0,40.26 -0.382,70.695 -0.893,71.01 -0.49,0.304 -6.228,-5.374 -12.75,-12.618"
       id="path28" />
    <path
       style="fill:#000"
       d="m 1470.196,980.165 -0.264,-60.033 h 47.15 v 58.942 l -21.61,28.78 c -11.886,15.828 -22.376,29.58 -23.311,30.561 -1.602,1.68 -1.716,-1.705 -1.965,-58.25"
       id="path27" />
    <path
       style="fill:#000"
       d="m 1432.082,1115.739 c 0,-1.03 5.567,-8.872 19.657,-27.694 7.17,-9.577 17.383,-23.488 22.695,-30.913 5.312,-7.425 14.65,-20.025 20.75,-28 11.375,-14.872 28.223,-38.197 31.595,-43.742 l 1.893,-3.112 7.334,8.177 c 7.92,8.83 23.736,25.944 36.625,39.63 4.427,4.7 8.814,9.66 9.75,11.02 l 1.701,2.472 1.583,-2.26 c 0.87,-1.243 8.532,-11.13 17.024,-21.973 18.976,-24.223 31.931,-41.132 46.518,-60.712 6.147,-8.25 17.102,-22.425 24.346,-31.5 16.656,-20.867 32.53,-41.89 32.53,-43.083 0,-0.504 -4.76,-4.843 -10.575,-9.642 l -10.575,-8.726 2.825,-1.257 c 1.553,-0.692 11.824,-4.651 22.824,-8.799 11,-4.148 22.25,-8.643 25,-9.99 2.75,-1.348 11.413,-4.883 19.25,-7.856 l 14.25,-5.407 v 3.947 c 0,4.322 -3.805,40.395 -4.516,42.813 -0.243,0.825 -1.37,9.774 -2.506,19.886 -1.136,10.112 -2.383,19.894 -2.772,21.738 l -0.706,3.351 -7.5,-5.973 c -13.357,-10.638 -15.346,-12.053 -16.431,-11.692 -0.588,0.195 -4.586,5.043 -8.885,10.773 -6.81,9.077 -13.83,18.243 -30.184,39.42 -2.2,2.849 -8.56,11.007 -14.133,18.13 -5.573,7.123 -14.359,18.556 -19.524,25.408 a 5592,5592 0 0 1 -19.333,25.459 c -5.468,7.15 -12.673,16.6 -16.01,21 -3.339,4.4 -8.754,11.426 -12.035,15.613 -3.28,4.188 -10.91,14.04 -16.954,21.894 l -10.989,14.28 -7.865,-8.393 c -4.326,-4.617 -10.587,-11.544 -13.914,-15.394 -9.556,-11.06 -32.128,-35.5 -32.785,-35.5 -0.329,0 -1.24,1.296 -2.027,2.881 -0.787,1.585 -5.296,7.997 -10.02,14.25 -11.547,15.284 -31.46,42.688 -37.505,51.614 l -4.906,7.245 -15.5,0.033 c -8.525,0.018 -18.762,0.304 -22.75,0.636 -3.987,0.331 -7.25,0.308 -7.25,-0.052"
       id="path26" />
    <path
       style="fill:#000000"
       d="m 1370.359,1209.411 c -0.258,-0.672 -0.313,-107.547 -0.122,-237.5 l 0.347,-236.279 h 458.998 l 0.257,211.25 c 0.222,182.437 0.062,211.25 -1.17,211.25 -2.223,0 -17.67,-5.644 -26.086,-9.532 l -7.6,-3.51 0.574,-184.23 c 0.317,-101.325 0.227,-185.697 -0.2,-187.493 l -0.775,-3.265 -194.39,-0.012 c -106.914,-0.007 -194.533,0.132 -194.71,0.308 -0.24,0.24 -0.663,385.216 -0.441,402.484 l 0.042,3.25 h 298.19 c 0,0 8.6599,5.3205 13.155,7.683 15.6774,8.2396 32.1343,14.9051 48.09,22.592 2.8653,1.3804 8.555,4.225 8.555,4.225 H 1571.95 c -157.464,0 -201.224,-0.265 -201.591,-1.221"
       id="path25"
       sodipodi:nodetypes="ccccsscccccccsccaacsc" />
    <path
       style="fill:#000000"
       d="m 1823.081,1211.476 c -28.173,-4.324 -34.7968,-10.151 -51.5329,-17.0179 -27.0013,-11.0787 -53.5952,-23.5782 -78.4653,-38.8518 -11.5052,-7.0657 -22.6729,-14.9307 -32.4465,-24.2457 -7.9265,-7.5546 -14.9762,-16.1336 -20.9045,-25.3399 -7.5562,-11.7344 -18.3788,-37.6213 -18.3788,-37.6213 l 37.9915,-48.3268 c 0,0 0.2674,18.6432 2.5439,27.5959 3.3254,13.078 8.1872,26.1814 15.9907,37.1905 7.7233,10.8959 18.7929,19.127 29.4901,27.1234 22.6098,16.9012 47.186,31.323 72.6269,43.5547 15.6532,7.5259 19.7559,9.6689 48.8359,18.1659 0.943,0.277 1.25,5.034 1.25,19.398 v 19.031 l -2.25,-0.136 c -1.5893,-0.1132 -3.1738,-0.2867 -4.75,-0.52"
       id="path1"
       sodipodi:nodetypes="caaaaccaaaacsccc" />
  </g>
</svg>
